<svg width="11" height="14" viewBox="0 0 11 14" fill="none" xmlns="http://www.w3.org/2000/svg">
<path d="M10.8326 0.429798C10.7208 0.269275 10.5703 0.151885 10.3814 0.0774173C10.2611 0.0259161 10.135 0.0001204 10.0032 0.0001204V0H0.996823C0.865075 0 0.739106 0.0257957 0.618766 0.0772969C0.429738 0.151704 0.279298 0.269245 0.167597 0.429678C0.0559258 0.590111 0 0.767641 0 0.962479V12.0399C0 12.2348 0.0559258 12.4122 0.167597 12.5728C0.279298 12.7332 0.429738 12.8507 0.618766 12.9251C0.738986 12.9766 0.865075 13.0023 0.996823 13.0023C1.26619 13.0023 1.50383 12.9078 1.71013 12.7189L5.50003 9.07489L9.28993 12.719C9.49048 12.902 9.72824 12.9937 10.0031 12.9937C10.1464 12.9937 10.2725 12.9709 10.3814 12.9251C10.5703 12.8507 10.7208 12.7332 10.8325 12.5726C10.9442 12.4122 11 12.2347 11 12.0398V0.962599C11 0.767762 10.9441 0.590232 10.8326 0.429798Z" fill="white" fill-opacity="0.8"/>
</svg>
